<svg xmlns="http://www.w3.org/2000/svg" width="32" height="32" viewBox="0 0 32 32">
  <g id="Group_20225" data-name="Group 20225" transform="translate(0 0)">
    <rect id="Rectangle_161" data-name="Rectangle 161" width="32" height="32" transform="translate(0 0)" fill="none"/>
    <path id="Icon_awesome-users" data-name="Icon awesome-users" d="M4.244,10.738A2.829,2.829,0,1,0,1.415,7.908,2.832,2.832,0,0,0,4.244,10.738Zm19.8,0a2.829,2.829,0,1,0-2.829-2.829A2.832,2.832,0,0,0,24.048,10.738Zm1.415,1.415H22.634a2.821,2.821,0,0,0-1.994.822,6.466,6.466,0,0,1,3.32,4.836h2.918A1.413,1.413,0,0,0,28.292,16.4V14.982A2.832,2.832,0,0,0,25.463,12.152Zm-11.317,0A4.951,4.951,0,1,0,9.195,7.2,4.949,4.949,0,0,0,14.146,12.152Zm3.4,1.415h-.367a6.836,6.836,0,0,1-6.056,0h-.367A5.094,5.094,0,0,0,5.658,18.66v1.273A2.122,2.122,0,0,0,7.78,22.055H20.512a2.122,2.122,0,0,0,2.122-2.122V18.66A5.094,5.094,0,0,0,17.541,13.567Zm-9.889-.592a2.821,2.821,0,0,0-1.994-.822H2.829A2.832,2.832,0,0,0,0,14.982V16.4a1.413,1.413,0,0,0,1.415,1.415H4.328A6.483,6.483,0,0,1,7.652,12.975Z" transform="translate(1.67 3.751)" fill="#fff"/>
  </g>
</svg>
